<mxfile host="app.diagrams.net" modified="2023-11-02T12:07:05.838Z" agent="Mozilla/5.0 (Windows NT 10.0; Win64; x64) AppleWebKit/537.36 (KHTML, like Gecko) Chrome/118.0.0.0 Safari/537.36" etag="ZnVYp6DRI4WNbY5uzfeY" version="22.0.8" type="google">
  <diagram name="Страница — 1" id="c2Y2TeWRUo9ONaQNrARH">
    <mxGraphModel grid="1" page="1" gridSize="10" guides="1" tooltips="1" connect="1" arrows="1" fold="1" pageScale="1" pageWidth="827" pageHeight="1169" math="0" shadow="0">
      <root>
        <mxCell id="0" />
        <mxCell id="1" parent="0" />
        <mxCell id="zF2Rs9ZbShxBafD07teq-18" value="" style="edgeStyle=orthogonalEdgeStyle;rounded=0;orthogonalLoop=1;jettySize=auto;html=1;" edge="1" parent="1" source="zF2Rs9ZbShxBafD07teq-12" target="zF2Rs9ZbShxBafD07teq-13">
          <mxGeometry relative="1" as="geometry" />
        </mxCell>
        <mxCell id="zF2Rs9ZbShxBafD07teq-35" style="edgeStyle=orthogonalEdgeStyle;rounded=0;orthogonalLoop=1;jettySize=auto;html=1;exitX=1;exitY=1;exitDx=0;exitDy=0;exitPerimeter=0;entryX=0;entryY=0.5;entryDx=0;entryDy=0;" edge="1" parent="1" source="zF2Rs9ZbShxBafD07teq-12" target="zF2Rs9ZbShxBafD07teq-34">
          <mxGeometry relative="1" as="geometry" />
        </mxCell>
        <mxCell id="zF2Rs9ZbShxBafD07teq-12" value="&lt;font style=&quot;vertical-align: inherit;&quot;&gt;&lt;font style=&quot;vertical-align: inherit;&quot;&gt;Сотрудник&lt;br&gt;&lt;/font&gt;&lt;/font&gt;" style="shape=umlActor;verticalLabelPosition=bottom;verticalAlign=top;html=1;outlineConnect=0;" vertex="1" parent="1">
          <mxGeometry x="70" y="60" width="30" height="60" as="geometry" />
        </mxCell>
        <mxCell id="zF2Rs9ZbShxBafD07teq-13" value="&lt;font style=&quot;vertical-align: inherit;&quot;&gt;&lt;font style=&quot;vertical-align: inherit;&quot;&gt;Предоставление билетов&amp;nbsp;&lt;/font&gt;&lt;/font&gt;" style="ellipse;whiteSpace=wrap;html=1;" vertex="1" parent="1">
          <mxGeometry x="200" y="50" width="120" height="80" as="geometry" />
        </mxCell>
        <mxCell id="zF2Rs9ZbShxBafD07teq-14" value="&lt;font style=&quot;vertical-align: inherit;&quot;&gt;&lt;font style=&quot;vertical-align: inherit;&quot;&gt;&lt;font style=&quot;vertical-align: inherit;&quot;&gt;&lt;font style=&quot;vertical-align: inherit;&quot;&gt;&lt;font style=&quot;vertical-align: inherit;&quot;&gt;&lt;font style=&quot;vertical-align: inherit;&quot;&gt;&lt;font style=&quot;vertical-align: inherit;&quot;&gt;&lt;font style=&quot;vertical-align: inherit;&quot;&gt;&lt;font style=&quot;vertical-align: inherit;&quot;&gt;&lt;font style=&quot;vertical-align: inherit;&quot;&gt;Выбор времени посещения&lt;/font&gt;&lt;/font&gt;&lt;/font&gt;&lt;/font&gt;&lt;/font&gt;&lt;/font&gt;&lt;/font&gt;&lt;/font&gt;&lt;/font&gt;&lt;/font&gt;" style="ellipse;whiteSpace=wrap;html=1;" vertex="1" parent="1">
          <mxGeometry x="190" y="300" width="120" height="80" as="geometry" />
        </mxCell>
        <mxCell id="zF2Rs9ZbShxBafD07teq-15" value="&lt;font style=&quot;vertical-align: inherit;&quot;&gt;&lt;font style=&quot;vertical-align: inherit;&quot;&gt;Предоставление документов для оформления билетов&amp;nbsp;&lt;/font&gt;&lt;/font&gt;" style="ellipse;whiteSpace=wrap;html=1;" vertex="1" parent="1">
          <mxGeometry x="200" y="400" width="120" height="80" as="geometry" />
        </mxCell>
        <mxCell id="zF2Rs9ZbShxBafD07teq-20" style="edgeStyle=orthogonalEdgeStyle;rounded=0;orthogonalLoop=1;jettySize=auto;html=1;exitX=1;exitY=0.3333333333333333;exitDx=0;exitDy=0;exitPerimeter=0;entryX=0;entryY=0.5;entryDx=0;entryDy=0;" edge="1" parent="1" source="zF2Rs9ZbShxBafD07teq-16" target="zF2Rs9ZbShxBafD07teq-15">
          <mxGeometry relative="1" as="geometry" />
        </mxCell>
        <mxCell id="zF2Rs9ZbShxBafD07teq-30" style="edgeStyle=orthogonalEdgeStyle;rounded=0;orthogonalLoop=1;jettySize=auto;html=1;exitX=1;exitY=1;exitDx=0;exitDy=0;exitPerimeter=0;entryX=0;entryY=0.5;entryDx=0;entryDy=0;" edge="1" parent="1" source="zF2Rs9ZbShxBafD07teq-16" target="zF2Rs9ZbShxBafD07teq-28">
          <mxGeometry relative="1" as="geometry" />
        </mxCell>
        <mxCell id="zF2Rs9ZbShxBafD07teq-32" style="edgeStyle=orthogonalEdgeStyle;rounded=0;orthogonalLoop=1;jettySize=auto;html=1;exitX=1;exitY=0.3333333333333333;exitDx=0;exitDy=0;exitPerimeter=0;entryX=0;entryY=0.5;entryDx=0;entryDy=0;" edge="1" parent="1" source="zF2Rs9ZbShxBafD07teq-16" target="zF2Rs9ZbShxBafD07teq-14">
          <mxGeometry relative="1" as="geometry" />
        </mxCell>
        <mxCell id="zF2Rs9ZbShxBafD07teq-16" value="&lt;font style=&quot;vertical-align: inherit;&quot;&gt;&lt;font style=&quot;vertical-align: inherit;&quot;&gt;Клиент&lt;br&gt;&lt;br&gt;&lt;/font&gt;&lt;/font&gt;" style="shape=umlActor;verticalLabelPosition=bottom;verticalAlign=top;html=1;outlineConnect=0;" vertex="1" parent="1">
          <mxGeometry x="70" y="390" width="30" height="60" as="geometry" />
        </mxCell>
        <mxCell id="zF2Rs9ZbShxBafD07teq-23" value="&lt;font style=&quot;vertical-align: inherit;&quot;&gt;&lt;font style=&quot;vertical-align: inherit;&quot;&gt;Оформление билетов&amp;nbsp;&lt;/font&gt;&lt;/font&gt;" style="ellipse;whiteSpace=wrap;html=1;" vertex="1" parent="1">
          <mxGeometry x="200" y="150" width="120" height="80" as="geometry" />
        </mxCell>
        <mxCell id="zF2Rs9ZbShxBafD07teq-24" style="edgeStyle=orthogonalEdgeStyle;rounded=0;orthogonalLoop=1;jettySize=auto;html=1;exitX=1;exitY=1;exitDx=0;exitDy=0;exitPerimeter=0;entryX=-0.004;entryY=0.606;entryDx=0;entryDy=0;entryPerimeter=0;" edge="1" parent="1" source="zF2Rs9ZbShxBafD07teq-12" target="zF2Rs9ZbShxBafD07teq-23">
          <mxGeometry relative="1" as="geometry" />
        </mxCell>
        <mxCell id="zF2Rs9ZbShxBafD07teq-25" value="&lt;font style=&quot;vertical-align: inherit;&quot;&gt;&lt;font style=&quot;vertical-align: inherit;&quot;&gt;&lt;font style=&quot;vertical-align: inherit;&quot;&gt;&lt;font style=&quot;vertical-align: inherit;&quot;&gt;Проверка в базе данных о наличии билетов на данное время&amp;nbsp;&lt;/font&gt;&lt;/font&gt;&lt;/font&gt;&lt;/font&gt;" style="ellipse;whiteSpace=wrap;html=1;" vertex="1" parent="1">
          <mxGeometry x="390" y="150" width="120" height="80" as="geometry" />
        </mxCell>
        <mxCell id="zF2Rs9ZbShxBafD07teq-27" value="" style="endArrow=none;dashed=1;html=1;rounded=0;exitX=1;exitY=0.5;exitDx=0;exitDy=0;entryX=0;entryY=0.5;entryDx=0;entryDy=0;" edge="1" parent="1" source="zF2Rs9ZbShxBafD07teq-23" target="zF2Rs9ZbShxBafD07teq-25">
          <mxGeometry width="50" height="50" relative="1" as="geometry">
            <mxPoint x="400" y="260" as="sourcePoint" />
            <mxPoint x="450" y="210" as="targetPoint" />
          </mxGeometry>
        </mxCell>
        <mxCell id="zF2Rs9ZbShxBafD07teq-28" value="&lt;font style=&quot;vertical-align: inherit;&quot;&gt;&lt;font style=&quot;vertical-align: inherit;&quot;&gt;оплата билетов&amp;nbsp;&lt;/font&gt;&lt;/font&gt;" style="ellipse;whiteSpace=wrap;html=1;" vertex="1" parent="1">
          <mxGeometry x="200" y="500" width="120" height="80" as="geometry" />
        </mxCell>
        <mxCell id="zF2Rs9ZbShxBafD07teq-34" value="&lt;font style=&quot;vertical-align: inherit;&quot;&gt;&lt;font style=&quot;vertical-align: inherit;&quot;&gt;бронирует билет на данное время&lt;/font&gt;&lt;/font&gt;" style="ellipse;whiteSpace=wrap;html=1;" vertex="1" parent="1">
          <mxGeometry x="294" y="230" width="120" height="80" as="geometry" />
        </mxCell>
        <mxCell id="zF2Rs9ZbShxBafD07teq-40" value="&lt;font style=&quot;vertical-align: inherit;&quot;&gt;&lt;font style=&quot;vertical-align: inherit;&quot;&gt;Клиент&lt;/font&gt;&lt;/font&gt;" style="shape=umlActor;verticalLabelPosition=bottom;verticalAlign=top;html=1;" vertex="1" parent="1">
          <mxGeometry x="60" y="690" width="30" height="60" as="geometry" />
        </mxCell>
        <mxCell id="zF2Rs9ZbShxBafD07teq-42" value="&lt;font style=&quot;vertical-align: inherit;&quot;&gt;&lt;font style=&quot;vertical-align: inherit;&quot;&gt;Сотрудник&lt;/font&gt;&lt;/font&gt;" style="shape=umlActor;verticalLabelPosition=bottom;verticalAlign=top;html=1;" vertex="1" parent="1">
          <mxGeometry x="740" y="690" width="30" height="60" as="geometry" />
        </mxCell>
        <mxCell id="zF2Rs9ZbShxBafD07teq-43" value="" style="html=1;points=[[0,0,0,0,5],[0,1,0,0,-5],[1,0,0,0,5],[1,1,0,0,-5]];perimeter=orthogonalPerimeter;outlineConnect=0;targetShapes=umlLifeline;portConstraint=eastwest;newEdgeStyle={&quot;curved&quot;:0,&quot;rounded&quot;:0};" vertex="1" parent="1">
          <mxGeometry x="70" y="780" width="10" height="300" as="geometry" />
        </mxCell>
        <mxCell id="zF2Rs9ZbShxBafD07teq-49" value="" style="edgeStyle=orthogonalEdgeStyle;rounded=0;orthogonalLoop=1;jettySize=auto;html=1;curved=0;" edge="1" parent="1" source="zF2Rs9ZbShxBafD07teq-44" target="zF2Rs9ZbShxBafD07teq-48">
          <mxGeometry relative="1" as="geometry" />
        </mxCell>
        <mxCell id="zF2Rs9ZbShxBafD07teq-50" value="&lt;font style=&quot;vertical-align: inherit;&quot;&gt;&lt;font style=&quot;vertical-align: inherit;&quot;&gt;Передача билетов в базу данных&lt;/font&gt;&lt;/font&gt;" style="edgeLabel;html=1;align=center;verticalAlign=middle;resizable=0;points=[];" vertex="1" connectable="0" parent="zF2Rs9ZbShxBafD07teq-49">
          <mxGeometry x="-0.0782" y="1" relative="1" as="geometry">
            <mxPoint as="offset" />
          </mxGeometry>
        </mxCell>
        <mxCell id="zF2Rs9ZbShxBafD07teq-44" value="" style="html=1;points=[[0,0,0,0,5],[0,1,0,0,-5],[1,0,0,0,5],[1,1,0,0,-5]];perimeter=orthogonalPerimeter;outlineConnect=0;targetShapes=umlLifeline;portConstraint=eastwest;newEdgeStyle={&quot;curved&quot;:0,&quot;rounded&quot;:0};" vertex="1" parent="1">
          <mxGeometry x="750" y="780" width="10" height="290" as="geometry" />
        </mxCell>
        <mxCell id="zF2Rs9ZbShxBafD07teq-45" value="&lt;font style=&quot;vertical-align: inherit;&quot;&gt;&lt;font style=&quot;vertical-align: inherit;&quot;&gt;База данных&amp;nbsp;&lt;/font&gt;&lt;/font&gt;" style="html=1;whiteSpace=wrap;" vertex="1" parent="1">
          <mxGeometry x="340" y="710" width="110" height="60" as="geometry" />
        </mxCell>
        <mxCell id="zF2Rs9ZbShxBafD07teq-48" value="" style="html=1;points=[[0,0,0,0,5],[0,1,0,0,-5],[1,0,0,0,5],[1,1,0,0,-5]];perimeter=orthogonalPerimeter;outlineConnect=0;targetShapes=umlLifeline;portConstraint=eastwest;newEdgeStyle={&quot;curved&quot;:0,&quot;rounded&quot;:0};" vertex="1" parent="1">
          <mxGeometry x="380" y="850" width="10" height="110" as="geometry" />
        </mxCell>
        <mxCell id="zF2Rs9ZbShxBafD07teq-51" value="&lt;font style=&quot;vertical-align: inherit;&quot;&gt;&lt;font style=&quot;vertical-align: inherit;&quot;&gt;Передача нужных документов для оформления билетов&lt;/font&gt;&lt;/font&gt;" style="endArrow=block;endFill=1;html=1;edgeStyle=orthogonalEdgeStyle;align=left;verticalAlign=top;rounded=0;exitX=1;exitY=1;exitDx=0;exitDy=-5;exitPerimeter=0;" edge="1" parent="1" source="zF2Rs9ZbShxBafD07teq-43">
          <mxGeometry x="-0.5664" relative="1" as="geometry">
            <mxPoint x="280" y="1010" as="sourcePoint" />
            <mxPoint x="750" y="980" as="targetPoint" />
            <Array as="points">
              <mxPoint x="80" y="980" />
              <mxPoint x="750" y="980" />
            </Array>
            <mxPoint as="offset" />
          </mxGeometry>
        </mxCell>
        <mxCell id="zF2Rs9ZbShxBafD07teq-54" value="&lt;font style=&quot;vertical-align: inherit;&quot;&gt;&lt;font style=&quot;vertical-align: inherit;&quot;&gt;Поверка наличия бидетов в базе данных&lt;/font&gt;&lt;/font&gt;" style="html=1;verticalAlign=bottom;endArrow=open;dashed=1;endSize=8;curved=0;rounded=0;" edge="1" parent="1" target="zF2Rs9ZbShxBafD07teq-44">
          <mxGeometry relative="1" as="geometry">
            <mxPoint x="390" y="950" as="sourcePoint" />
            <mxPoint x="480" y="950" as="targetPoint" />
          </mxGeometry>
        </mxCell>
        <mxCell id="zF2Rs9ZbShxBafD07teq-55" style="edgeStyle=orthogonalEdgeStyle;rounded=0;orthogonalLoop=1;jettySize=auto;html=1;curved=0;exitX=1;exitY=0;exitDx=0;exitDy=5;exitPerimeter=0;entryX=0;entryY=0;entryDx=0;entryDy=5;entryPerimeter=0;" edge="1" parent="1" source="zF2Rs9ZbShxBafD07teq-43" target="zF2Rs9ZbShxBafD07teq-44">
          <mxGeometry relative="1" as="geometry" />
        </mxCell>
        <mxCell id="zF2Rs9ZbShxBafD07teq-57" value="&lt;font style=&quot;vertical-align: inherit;&quot;&gt;&lt;font style=&quot;vertical-align: inherit;&quot;&gt;&lt;font style=&quot;vertical-align: inherit;&quot;&gt;&lt;font style=&quot;vertical-align: inherit;&quot;&gt;Выбор&amp;nbsp;времени посещения&amp;nbsp;&lt;/font&gt;&lt;/font&gt;&lt;/font&gt;&lt;/font&gt;" style="edgeLabel;html=1;align=center;verticalAlign=middle;resizable=0;points=[];" vertex="1" connectable="0" parent="zF2Rs9ZbShxBafD07teq-55">
          <mxGeometry x="-0.6557" y="-1" relative="1" as="geometry">
            <mxPoint as="offset" />
          </mxGeometry>
        </mxCell>
        <mxCell id="zF2Rs9ZbShxBafD07teq-58" value="&lt;font style=&quot;vertical-align: inherit;&quot;&gt;&lt;font style=&quot;vertical-align: inherit;&quot;&gt;Оплата билета&amp;nbsp;&lt;/font&gt;&lt;/font&gt;" style="html=1;verticalAlign=bottom;endArrow=block;curved=0;rounded=0;" edge="1" parent="1" target="zF2Rs9ZbShxBafD07teq-44">
          <mxGeometry width="80" relative="1" as="geometry">
            <mxPoint x="80" y="1020" as="sourcePoint" />
            <mxPoint x="380" y="910" as="targetPoint" />
          </mxGeometry>
        </mxCell>
        <mxCell id="zF2Rs9ZbShxBafD07teq-60" value="&lt;font style=&quot;vertical-align: inherit;&quot;&gt;&lt;font style=&quot;vertical-align: inherit;&quot;&gt;Передача билетов&lt;/font&gt;&lt;/font&gt;" style="html=1;verticalAlign=bottom;endArrow=block;curved=0;rounded=0;exitX=0;exitY=1;exitDx=0;exitDy=-5;exitPerimeter=0;" edge="1" parent="1" source="zF2Rs9ZbShxBafD07teq-44">
          <mxGeometry width="80" relative="1" as="geometry">
            <mxPoint x="300" y="910" as="sourcePoint" />
            <mxPoint x="80" y="1070" as="targetPoint" />
          </mxGeometry>
        </mxCell>
        <mxCell id="zF2Rs9ZbShxBafD07teq-85" value="Сотрудник" style="rounded=0;whiteSpace=wrap;html=1;" vertex="1" parent="1">
          <mxGeometry x="280" y="1220" width="190" height="60" as="geometry" />
        </mxCell>
        <mxCell id="zF2Rs9ZbShxBafD07teq-86" value="" style="rounded=0;whiteSpace=wrap;html=1;" vertex="1" parent="1">
          <mxGeometry x="280" y="1280" width="190" height="630" as="geometry" />
        </mxCell>
        <mxCell id="zF2Rs9ZbShxBafD07teq-87" value="Клиент" style="rounded=0;whiteSpace=wrap;html=1;" vertex="1" parent="1">
          <mxGeometry x="470" y="1220" width="190" height="60" as="geometry" />
        </mxCell>
        <mxCell id="zF2Rs9ZbShxBafD07teq-88" value="" style="rounded=0;whiteSpace=wrap;html=1;" vertex="1" parent="1">
          <mxGeometry x="470" y="1280" width="190" height="630" as="geometry" />
        </mxCell>
        <mxCell id="zF2Rs9ZbShxBafD07teq-100" style="edgeStyle=orthogonalEdgeStyle;rounded=0;orthogonalLoop=1;jettySize=auto;html=1;exitX=0.5;exitY=1;exitDx=0;exitDy=0;" edge="1" parent="1" source="zF2Rs9ZbShxBafD07teq-91" target="zF2Rs9ZbShxBafD07teq-92">
          <mxGeometry relative="1" as="geometry" />
        </mxCell>
        <mxCell id="zF2Rs9ZbShxBafD07teq-91" value="" style="ellipse;shape=doubleEllipse;whiteSpace=wrap;html=1;aspect=fixed;" vertex="1" parent="1">
          <mxGeometry x="335" y="1290" width="80" height="80" as="geometry" />
        </mxCell>
        <mxCell id="zF2Rs9ZbShxBafD07teq-99" value="" style="edgeStyle=orthogonalEdgeStyle;rounded=0;orthogonalLoop=1;jettySize=auto;html=1;" edge="1" parent="1" source="zF2Rs9ZbShxBafD07teq-92" target="zF2Rs9ZbShxBafD07teq-93">
          <mxGeometry relative="1" as="geometry" />
        </mxCell>
        <mxCell id="zF2Rs9ZbShxBafD07teq-92" value="Предоставляет билеты" style="rounded=1;whiteSpace=wrap;html=1;" vertex="1" parent="1">
          <mxGeometry x="320" y="1410" width="120" height="60" as="geometry" />
        </mxCell>
        <mxCell id="zF2Rs9ZbShxBafD07teq-101" style="edgeStyle=orthogonalEdgeStyle;rounded=0;orthogonalLoop=1;jettySize=auto;html=1;exitX=0.5;exitY=1;exitDx=0;exitDy=0;entryX=0.5;entryY=0;entryDx=0;entryDy=0;" edge="1" parent="1" source="zF2Rs9ZbShxBafD07teq-93" target="zF2Rs9ZbShxBafD07teq-94">
          <mxGeometry relative="1" as="geometry" />
        </mxCell>
        <mxCell id="zF2Rs9ZbShxBafD07teq-93" value="Выбирает билет" style="rounded=1;whiteSpace=wrap;html=1;" vertex="1" parent="1">
          <mxGeometry x="505" y="1410" width="120" height="60" as="geometry" />
        </mxCell>
        <mxCell id="zF2Rs9ZbShxBafD07teq-102" style="edgeStyle=orthogonalEdgeStyle;rounded=0;orthogonalLoop=1;jettySize=auto;html=1;exitX=1;exitY=0.5;exitDx=0;exitDy=0;entryX=0;entryY=0.5;entryDx=0;entryDy=0;" edge="1" parent="1" source="zF2Rs9ZbShxBafD07teq-94" target="zF2Rs9ZbShxBafD07teq-96">
          <mxGeometry relative="1" as="geometry" />
        </mxCell>
        <mxCell id="zF2Rs9ZbShxBafD07teq-94" value="Проверяет наличие билета&amp;nbsp;" style="rounded=1;whiteSpace=wrap;html=1;" vertex="1" parent="1">
          <mxGeometry x="325" y="1510" width="120" height="60" as="geometry" />
        </mxCell>
        <mxCell id="zF2Rs9ZbShxBafD07teq-103" style="edgeStyle=orthogonalEdgeStyle;rounded=0;orthogonalLoop=1;jettySize=auto;html=1;exitX=0.5;exitY=1;exitDx=0;exitDy=0;entryX=0.5;entryY=0;entryDx=0;entryDy=0;" edge="1" parent="1" source="zF2Rs9ZbShxBafD07teq-96" target="zF2Rs9ZbShxBafD07teq-97">
          <mxGeometry relative="1" as="geometry" />
        </mxCell>
        <mxCell id="zF2Rs9ZbShxBafD07teq-96" value="Представляет нужные документы" style="rounded=1;whiteSpace=wrap;html=1;" vertex="1" parent="1">
          <mxGeometry x="500" y="1510" width="120" height="60" as="geometry" />
        </mxCell>
        <mxCell id="zF2Rs9ZbShxBafD07teq-104" style="edgeStyle=orthogonalEdgeStyle;rounded=0;orthogonalLoop=1;jettySize=auto;html=1;exitX=1;exitY=0.5;exitDx=0;exitDy=0;" edge="1" parent="1" source="zF2Rs9ZbShxBafD07teq-97" target="zF2Rs9ZbShxBafD07teq-98">
          <mxGeometry relative="1" as="geometry" />
        </mxCell>
        <mxCell id="zF2Rs9ZbShxBafD07teq-97" value="Оформляет билет" style="rounded=1;whiteSpace=wrap;html=1;" vertex="1" parent="1">
          <mxGeometry x="320" y="1620" width="120" height="60" as="geometry" />
        </mxCell>
        <mxCell id="zF2Rs9ZbShxBafD07teq-106" style="edgeStyle=orthogonalEdgeStyle;rounded=0;orthogonalLoop=1;jettySize=auto;html=1;exitX=0.5;exitY=1;exitDx=0;exitDy=0;entryX=0.5;entryY=0;entryDx=0;entryDy=0;" edge="1" parent="1" source="zF2Rs9ZbShxBafD07teq-98" target="zF2Rs9ZbShxBafD07teq-105">
          <mxGeometry relative="1" as="geometry" />
        </mxCell>
        <mxCell id="zF2Rs9ZbShxBafD07teq-98" value="Оплачивает билет&amp;nbsp;" style="rounded=1;whiteSpace=wrap;html=1;" vertex="1" parent="1">
          <mxGeometry x="500" y="1620" width="120" height="60" as="geometry" />
        </mxCell>
        <mxCell id="zF2Rs9ZbShxBafD07teq-109" value="" style="edgeStyle=orthogonalEdgeStyle;rounded=0;orthogonalLoop=1;jettySize=auto;html=1;" edge="1" parent="1" source="zF2Rs9ZbShxBafD07teq-105" target="zF2Rs9ZbShxBafD07teq-107">
          <mxGeometry relative="1" as="geometry" />
        </mxCell>
        <mxCell id="zF2Rs9ZbShxBafD07teq-105" value="Бронирует билет&amp;nbsp;" style="rounded=1;whiteSpace=wrap;html=1;" vertex="1" parent="1">
          <mxGeometry x="310" y="1720" width="120" height="60" as="geometry" />
        </mxCell>
        <mxCell id="zF2Rs9ZbShxBafD07teq-107" value="" style="ellipse;shape=doubleEllipse;whiteSpace=wrap;html=1;aspect=fixed;" vertex="1" parent="1">
          <mxGeometry x="330" y="1820" width="80" height="80" as="geometry" />
        </mxCell>
        <mxCell id="CIh72xdswrtDg1eftAE9-1" value="&lt;font style=&quot;vertical-align: inherit;&quot;&gt;&lt;font style=&quot;vertical-align: inherit;&quot;&gt;Часть 1&lt;/font&gt;&lt;/font&gt;" style="text;html=1;align=center;verticalAlign=middle;resizable=0;points=[];autosize=1;strokeColor=none;fillColor=none;" vertex="1" parent="1">
          <mxGeometry x="275" y="8" width="70" height="30" as="geometry" />
        </mxCell>
        <mxCell id="CIh72xdswrtDg1eftAE9-2" value="&lt;font style=&quot;vertical-align: inherit;&quot;&gt;&lt;font style=&quot;vertical-align: inherit;&quot;&gt;Часть 3&lt;/font&gt;&lt;/font&gt;" style="text;html=1;align=center;verticalAlign=middle;resizable=0;points=[];autosize=1;strokeColor=none;fillColor=none;" vertex="1" parent="1">
          <mxGeometry x="195" y="628" width="70" height="30" as="geometry" />
        </mxCell>
      </root>
    </mxGraphModel>
  </diagram>
</mxfile>
